<svg xmlns="http://www.w3.org/2000/svg" width="1000" height="1000" viewBox="0 0 1000 1000"><defs>
  <radialGradient id="halo" cx="50%" cy="43%" r="22%">
    <stop offset="0%" stop-color="#FF6F1F" stop-opacity="0.9"/>
    <stop offset="50%" stop-color="#FF6F1F" stop-opacity="0.30"/>
    <stop offset="100%" stop-color="#FF6F1F" stop-opacity="0"/>
  </radialGradient>
</defs><path d="M 500.00 30.00 L 92.97 265.00 L 92.97 735.00 L 500.00 970.00 L 907.03 735.00 L 907.03 265.00 Z" fill="#0e2740"/><g id="halo"><ellipse cx="500" cy="430" rx="210" ry="200" fill="url(#halo)"/></g><g id="center"><circle cx="500.00" cy="430.00" r="42.00" fill="#FF6F1F"/></g><g id="curves" stroke="#ff8a3a" opacity="0.9" fill="none"><path d="M 360.00 600.00 C 406.67 513.33, 453.33 466.67, 500 430" stroke="#ff8a3a" stroke-width="3.2" fill="none" stroke-linecap="round" opacity="0.85"/><circle cx="360.00" cy="600.00" r="10.00" fill="#ff9950"/><path d="M 640.00 600.00 C 593.33 513.33, 546.67 466.67, 500 430" stroke="#ff8a3a" stroke-width="3.2" fill="none" stroke-linecap="round" opacity="0.85"/><circle cx="640.00" cy="600.00" r="10.00" fill="#ff9950"/><path d="M 430.00 315.00 C 453.33 323.33, 476.67 371.67, 500 430" stroke="#ff8a3a" stroke-width="3.2" fill="none" stroke-linecap="round" opacity="0.85"/><circle cx="430.00" cy="315.00" r="10.00" fill="#ff9950"/><path d="M 690.00 330.00 C 626.67 333.33, 563.33 376.67, 500 430" stroke="#ff8a3a" stroke-width="3.2" fill="none" stroke-linecap="round" opacity="0.85"/><circle cx="690.00" cy="330.00" r="10.00" fill="#ff9950"/><path d="M 760.00 300.00 C 673.33 313.33, 586.67 366.67, 500 430" stroke="#ff8a3a" stroke-width="3.2" fill="none" stroke-linecap="round" opacity="0.85"/><circle cx="760.00" cy="300.00" r="10.00" fill="#ff9950"/><path d="M 500.00 760.00 C 500.00 620.00, 500.00 520.00, 500 430" stroke="#ff8a3a" stroke-width="3.2" fill="none" stroke-linecap="round" opacity="0.85"/><circle cx="500.00" cy="760.00" r="10.00" fill="#ff9950"/></g><g id="stars_orange"><circle cx="215.00" cy="220.00" r="14.00" fill="#ff9950"/><circle cx="300.00" cy="210.00" r="10.00" fill="#ff9950"/><circle cx="390.00" cy="230.00" r="12.00" fill="#ff9950"/><circle cx="460.00" cy="195.00" r="14.00" fill="#ff9950"/><circle cx="540.00" cy="210.00" r="10.00" fill="#ff9950"/><circle cx="635.00" cy="235.00" r="15.00" fill="#ff9950"/><circle cx="710.00" cy="210.00" r="11.00" fill="#ff9950"/><circle cx="815.00" cy="245.00" r="10.00" fill="#ff9950"/><circle cx="760.00" cy="300.00" r="8.00" fill="#ff9950"/><circle cx="690.00" cy="330.00" r="12.00" fill="#ff9950"/><circle cx="600.00" cy="320.00" r="9.00" fill="#ff9950"/><circle cx="520.00" cy="300.00" r="7.00" fill="#ff9950"/><circle cx="430.00" cy="315.00" r="9.00" fill="#ff9950"/><circle cx="350.00" cy="300.00" r="8.00" fill="#ff9950"/><circle cx="280.00" cy="330.00" r="7.00" fill="#ff9950"/><circle cx="240.00" cy="380.00" r="6.00" fill="#ff9950"/><circle cx="210.00" cy="430.00" r="6.00" fill="#ff9950"/><circle cx="275.00" cy="450.00" r="8.00" fill="#ff9950"/><circle cx="330.00" cy="470.00" r="6.00" fill="#ff9950"/><circle cx="380.00" cy="430.00" r="7.00" fill="#ff9950"/><circle cx="555.00" cy="470.00" r="8.00" fill="#ff9950"/><circle cx="620.00" cy="450.00" r="6.00" fill="#ff9950"/><circle cx="670.00" cy="420.00" r="8.00" fill="#ff9950"/><circle cx="740.00" cy="430.00" r="7.00" fill="#ff9950"/><circle cx="800.00" cy="380.00" r="6.00" fill="#ff9950"/><circle cx="840.00" cy="330.00" r="6.00" fill="#ff9950"/><circle cx="310.00" cy="560.00" r="6.00" fill="#ff9950"/><circle cx="360.00" cy="600.00" r="8.00" fill="#ff9950"/><circle cx="430.00" cy="625.00" r="6.00" fill="#ff9950"/><circle cx="500.00" cy="640.00" r="10.00" fill="#ff9950"/><circle cx="565.00" cy="620.00" r="7.00" fill="#ff9950"/><circle cx="640.00" cy="600.00" r="8.00" fill="#ff9950"/><circle cx="700.00" cy="630.00" r="7.00" fill="#ff9950"/><circle cx="770.00" cy="600.00" r="6.00" fill="#ff9950"/><circle cx="230.00" cy="620.00" r="5.00" fill="#ff9950"/><circle cx="290.00" cy="670.00" r="6.00" fill="#ff9950"/><circle cx="350.00" cy="710.00" r="5.00" fill="#ff9950"/><circle cx="420.00" cy="740.00" r="6.00" fill="#ff9950"/><circle cx="500.00" cy="760.00" r="12.00" fill="#ff9950"/><circle cx="575.00" cy="740.00" r="6.00" fill="#ff9950"/><circle cx="645.00" cy="710.00" r="5.00" fill="#ff9950"/><circle cx="715.00" cy="675.00" r="6.00" fill="#ff9950"/><circle cx="790.00" cy="720.00" r="6.00" fill="#ff9950"/></g><g id="stars_blue"><circle cx="745.00" cy="270.00" r="9.00" fill="#4e8fb3"/><circle cx="685.00" cy="460.00" r="8.00" fill="#4e8fb3"/><circle cx="600.00" cy="510.00" r="6.00" fill="#4e8fb3"/><circle cx="530.00" cy="560.00" r="7.00" fill="#4e8fb3"/><circle cx="455.00" cy="520.00" r="6.00" fill="#4e8fb3"/><circle cx="240.00" cy="530.00" r="5.00" fill="#4e8fb3"/><circle cx="305.00" cy="360.00" r="6.00" fill="#4e8fb3"/><circle cx="835.00" cy="470.00" r="5.00" fill="#4e8fb3"/><circle cx="820.00" cy="550.00" r="5.00" fill="#4e8fb3"/><circle cx="755.00" cy="530.00" r="5.00" fill="#4e8fb3"/></g><g id="wordmark" fill="#f3efe2"><path d="M 247.14 759.33 L 247.14 784.56 L 241.85 782.48 L 231.55 779.14 L 226.53 777.88 L 221.65 776.91 L 212.28 775.80 L 207.80 775.66 L 203.37 775.81 L 196.33 776.99 L 193.73 778.03 L 192.66 778.67 L 190.94 780.17 L 189.80 781.99 L 189.23 784.12 L 189.16 785.31 L 189.37 787.19 L 191.11 790.27 L 192.63 791.45 L 194.71 792.44 L 200.95 794.01 L 205.10 794.60 L 210.95 795.43 L 217.07 796.30 L 227.74 798.45 L 236.32 801.11 L 242.81 804.30 L 245.27 806.09 L 247.33 808.08 L 250.64 812.84 L 252.84 818.67 L 253.95 825.55 L 254.08 829.39 L 253.89 833.41 L 252.36 840.68 L 249.29 846.92 L 244.70 852.14 L 241.82 854.36 L 238.58 856.31 L 230.96 859.44 L 221.83 861.53 L 211.19 862.57 L 205.31 862.70 L 200.11 862.60 L 189.45 861.78 L 183.99 861.07 L 178.46 860.15 L 167.16 857.72 L 161.40 856.20 L 161.40 830.97 L 166.40 833.22 L 176.59 836.84 L 181.77 838.21 L 187.01 839.26 L 197.61 840.46 L 202.96 840.61 L 207.54 840.45 L 213.27 839.57 L 216.33 838.57 L 217.63 837.94 L 218.78 837.23 L 220.63 835.55 L 221.86 833.54 L 222.48 831.21 L 222.56 829.93 L 222.34 827.84 L 221.23 825.25 L 219.97 823.88 L 219.17 823.31 L 217.06 822.28 L 210.30 820.59 L 205.66 819.92 L 199.82 819.18 L 194.48 818.41 L 185.05 816.42 L 177.28 813.85 L 171.17 810.68 L 168.73 808.88 L 166.65 806.88 L 163.31 802.15 L 161.08 796.44 L 159.97 789.76 L 159.83 786.05 L 160.00 782.06 L 161.42 774.87 L 164.24 768.76 L 168.49 763.71 L 171.14 761.59 L 174.16 759.71 L 181.33 756.72 L 190.01 754.72 L 200.19 753.72 L 205.84 753.60 L 210.50 753.69 L 220.15 754.38 L 225.14 755.00 L 230.31 755.78 L 241.31 757.95 L 247.14 759.33 Z M 383.50 796.74 L 383.50 860.00 L 350.10 860.00 L 350.10 849.70 L 350.10 811.76 L 349.96 800.26 L 349.51 793.02 L 349.16 790.64 L 348.12 786.89 L 347.43 785.51 L 346.37 783.97 L 343.71 781.43 L 342.12 780.44 L 340.40 779.65 L 336.60 778.74 L 334.52 778.63 L 331.99 778.75 L 327.35 779.76 L 323.27 781.77 L 319.74 784.79 L 318.19 786.67 L 316.80 788.77 L 314.57 793.55 L 313.09 799.10 L 312.35 805.43 L 312.25 808.88 L 312.25 860.00 L 279.06 860.00 L 279.06 715.63 L 312.25 715.63 L 312.25 771.29 L 314.15 769.10 L 318.02 765.15 L 322.00 761.81 L 326.10 759.06 L 328.20 757.90 L 330.34 756.90 L 334.79 755.28 L 339.46 754.21 L 344.34 753.67 L 346.87 753.60 L 351.23 753.77 L 359.14 755.15 L 365.97 757.91 L 371.72 762.06 L 374.18 764.64 L 376.37 767.55 L 379.86 774.32 L 382.19 782.34 L 383.36 791.62 L 383.50 796.74 Z M 491.51 784.39 L 489.33 783.43 L 484.98 781.93 L 482.82 781.39 L 478.50 780.65 L 474.15 780.41 L 471.04 780.54 L 465.38 781.56 L 460.45 783.62 L 456.26 786.70 L 454.43 788.63 L 452.81 790.79 L 450.22 795.77 L 448.49 801.65 L 447.63 808.40 L 447.52 812.11 L 447.52 860.00 L 414.33 860.00 L 414.33 756.09 L 447.52 756.09 L 447.52 773.16 L 449.15 770.70 L 452.59 766.29 L 456.26 762.57 L 460.17 759.54 L 462.21 758.29 L 464.34 757.19 L 468.91 755.43 L 473.89 754.26 L 479.28 753.67 L 482.13 753.60 L 483.86 753.64 L 485.72 753.75 L 488.12 753.96 L 491.40 754.34 L 491.51 784.39 Z M 508.03 756.09 L 541.22 756.09 L 541.22 860.00 L 508.03 860.00 L 508.03 756.09 Z M 508.03 715.63 L 541.22 715.63 L 541.22 742.73 L 508.03 742.73 L 508.03 715.63 Z M 677.60 796.74 L 677.60 860.00 L 644.20 860.00 L 644.20 849.70 L 644.20 811.58 L 644.05 800.22 L 643.60 793.02 L 643.25 790.64 L 642.21 786.89 L 641.52 785.51 L 640.46 783.97 L 637.80 781.43 L 636.21 780.44 L 634.49 779.65 L 630.69 778.74 L 628.61 778.63 L 626.08 778.75 L 621.44 779.76 L 617.36 781.77 L 613.84 784.79 L 612.28 786.67 L 610.89 788.77 L 608.66 793.55 L 607.18 799.10 L 606.44 805.43 L 606.35 808.88 L 606.35 860.00 L 573.15 860.00 L 573.15 756.09 L 606.35 756.09 L 606.35 771.29 L 608.24 769.10 L 612.11 765.15 L 616.09 761.81 L 620.19 759.06 L 622.29 757.90 L 624.43 756.90 L 628.88 755.28 L 633.55 754.21 L 638.43 753.67 L 640.96 753.60 L 645.32 753.77 L 653.23 755.15 L 660.06 757.91 L 665.81 762.06 L 668.27 764.64 L 670.46 767.55 L 673.95 774.32 L 676.28 782.34 L 677.45 791.62 L 677.60 796.74 Z M 708.42 715.63 L 741.61 715.63 L 741.61 794.21 L 779.85 756.09 L 818.44 756.09 L 767.67 803.77 L 822.42 860.00 L 782.16 860.00 L 741.61 816.69 L 741.61 860.00 L 708.42 860.00 L 708.42 715.63 Z M 911.96 784.39 L 909.78 783.43 L 905.43 781.93 L 903.26 781.39 L 898.95 780.65 L 894.60 780.41 L 891.49 780.54 L 885.83 781.56 L 880.90 783.62 L 876.70 786.70 L 874.88 788.63 L 873.26 790.79 L 870.67 795.77 L 868.94 801.65 L 868.07 808.40 L 867.97 812.11 L 867.97 860.00 L 834.78 860.00 L 834.78 756.09 L 867.97 756.09 L 867.97 773.16 L 869.60 770.70 L 873.04 766.29 L 876.71 762.57 L 880.62 759.54 L 882.66 758.29 L 884.79 757.19 L 889.36 755.43 L 894.34 754.26 L 899.73 753.67 L 902.58 753.60 L 904.31 753.64 L 906.17 753.75 L 908.57 753.96 L 911.84 754.34 L 911.96 784.39 Z" /></g></svg>